<?xml version="1.0"?>
<svg width="749.9999999999999" height="500" xmlns="http://www.w3.org/2000/svg" xmlns:svg="http://www.w3.org/2000/svg">
 <g class="layer">
  <title>Layer 1</title>
  <g id="svg_149">
   <g id="freepik--background-simple--inject-33">
    <path d="m660.34,238.42c-25.62,-41 -60.83,-76.73 -97.78,-104.38c-37.39,-28 -81.78,-49 -128.84,-52.35a271.72,271.72 0 0 0 -136.06,25.42c-30.76,14.67 -58.26,35.08 -78.63,62.62c-3.26,4.41 -5.28,8.9 -7.48,13.95c-0.39,0.89 -0.76,1.78 -1.12,2.67a235.76,235.76 0 0 0 -12.48,41.5c-1.62,8.08 -2.31,16.81 -5.48,24.49c-9.37,22.68 -39.14,29.21 -58,41.61c-45.07,29.68 -86.5,81.09 -77.73,138.32l0,0.21c8,51.22 29.93,56.54 29.93,56.54l587.4,0s27.94,-43.24 26.61,-124.39c-0.74,-45.14 -16.57,-88.23 -40.34,-126.21z" fill="#7F00FF" id="svg_1"/>
    <path d="m660.34,238.42c-25.62,-41 -60.83,-76.73 -97.78,-104.38c-37.39,-28 -81.78,-49 -128.84,-52.35a271.72,271.72 0 0 0 -136.06,25.42c-30.76,14.67 -58.26,35.08 -78.63,62.62c-3.26,4.41 -5.28,8.9 -7.48,13.95c-0.39,0.89 -0.76,1.78 -1.12,2.67a235.76,235.76 0 0 0 -12.48,41.5c-1.62,8.08 -2.31,16.81 -5.48,24.49c-9.37,22.68 -39.14,29.21 -58,41.61c-45.07,29.68 -86.5,81.09 -77.73,138.32l0,0.21c8,51.22 29.93,56.54 29.93,56.54l587.4,0s27.94,-43.24 26.61,-124.39c-0.74,-45.14 -16.57,-88.23 -40.34,-126.21z" fill="#fff" id="svg_2" opacity="0.7"/>
   </g>
   <g id="freepik--Plants--inject-33">
    <path d="m16.51,417.53c2.4,1.05 8.28,0.91 8.28,0.91s-1.26,-3.84 -1.37,-4.08c-1.29,-2.7 -5.37,-7.15 -8.69,-6.7a4,4 0 0 0 -3.18,5c0.55,2.26 2.91,3.97 4.96,4.87z" fill="#263238" id="svg_3"/>
    <path d="m18.53,434.55c2.5,0.37 7.74,-1.15 8.16,-1.28a71.18,71.18 0 0 0 3.18,8.81c0.72,1.67 1.5,3.33 2.3,5c-0.47,-0.7 -0.91,-1.32 -1,-1.4c-1.95,-2.27 -7.06,-5.48 -10.15,-4.18a4,4 0 0 0 -1.75,5.64c1.14,2.07 3.86,3.09 6.07,3.41s6.74,-0.88 7.93,-1.21c0.31,0.63 0.62,1.26 0.94,1.89c1.52,3 3.05,6 4.45,9c0.5,1.06 0.95,2.12 1.41,3.18c-0.43,-0.63 -0.79,-1.15 -0.86,-1.22c-1.95,-2.26 -7.06,-5.48 -10.14,-4.17a4,4 0 0 0 -1.76,5.63c1.14,2.07 3.86,3.09 6.07,3.42s6.31,-0.77 7.72,-1.16c0.43,1.1 0.87,2.19 1.24,3.28c0.23,0.74 0.51,1.44 0.71,2.21s0.41,1.49 0.62,2.22c0.34,1.44 0.71,2.91 1,4.31c0.21,1 0.4,1.91 0.59,2.85c-0.48,-1.06 -1.47,-3.11 -1.57,-3.27c-1.59,-2.53 -6.16,-6.49 -9.4,-5.66a4,4 0 0 0 -2.59,5.3c0.81,2.22 3.35,3.64 5.49,4.3c2.35,0.72 7.55,0.06 8.2,0c0.32,1.56 0.61,3.07 0.86,4.51q0.27,1.59 0.51,3.06l2.09,0c-0.2,-1.09 -0.42,-2.23 -0.65,-3.42c-0.31,-1.59 -0.68,-3.27 -1.07,-5a45,45 0 0 0 4.58,-2.16c1.72,1.86 6.11,4 6.68,4.31c-0.6,1.47 -1.2,2.89 -1.78,4.23l-0.9,2l2.2,0l0.53,-1.26c0.61,-1.49 1.24,-3.1 1.86,-4.75c0.63,0.13 5.79,1.18 8.19,0.64c2.18,-0.5 4.82,-1.73 5.79,-3.88a4,4 0 0 0 -2.15,-5.44c-3.18,-1.07 -8,2.54 -9.8,4.95c-0.11,0.14 -1.07,1.81 -1.66,2.87c0.25,-0.68 0.5,-1.33 0.76,-2c0.5,-1.39 1,-2.78 1.47,-4.28c0.22,-0.73 0.44,-1.47 0.67,-2.21s0.39,-1.54 0.59,-2.32c0.44,-1.81 0.78,-3.67 1.09,-5.55c1.21,0.44 5.54,1.94 7.77,1.78s5,-1 6.32,-2.95a4,4 0 0 0 -1.34,-5.75c-3,-1.53 -8.31,1.3 -10.43,3.41c-0.13,0.13 -1.48,1.81 -2.2,2.75c0.17,-1.13 0.36,-2.26 0.5,-3.41c0.41,-3.32 0.72,-6.69 1,-10.06c0.1,-1 0.21,-2.05 0.32,-3.08c0.43,0.16 5.53,2.06 8,1.88c2.22,-0.15 5,-1 6.31,-2.95a4,4 0 0 0 -1.33,-5.75c-3,-1.53 -8.31,1.3 -10.43,3.41c-0.16,0.16 -2.1,2.58 -2.57,3.22c0.24,-2.26 0.5,-4.51 0.85,-6.72a68.68,68.68 0 0 1 1.93,-8.85c0.2,0.08 5.51,2.08 8.07,1.9c2.23,-0.15 5,-1 6.32,-2.95a4,4 0 0 0 -1.33,-5.75c-3,-1.53 -8.32,1.3 -10.44,3.41c-0.16,0.16 -2.25,2.77 -2.59,3.28c0,-0.17 0.08,-0.35 0.13,-0.52a51.51,51.51 0 0 1 3.5,-8.37c0.77,-1.49 1.58,-2.87 2.4,-4.2c1,0.48 5.32,2.6 7.65,2.69s5.1,-0.41 6.6,-2.24a4,4 0 0 0 -0.7,-5.86c-2.79,-1.85 -8.4,0.37 -10.74,2.24c-0.13,0.1 -1.3,1.27 -2.15,2.14c0.38,-0.59 0.76,-1.21 1.13,-1.77c1.4,-2.11 2.82,-4 4.08,-5.58c0.73,-0.92 1.4,-1.74 2,-2.49c1.18,0 5.92,-0.17 8,-1.14s4.33,-2.72 4.82,-5a4,4 0 0 0 -3.31,-4.88c-3.33,-0.36 -7.29,4.2 -8.51,6.93c-0.1,0.24 -1.32,4.12 -1.26,4.12l0.07,0c-0.63,0.72 -1.3,1.49 -2,2.35c-1.3,1.6 -2.76,3.42 -4.21,5.51a70.17,70.17 0 0 0 -4.37,6.95a52.81,52.81 0 0 0 -3.73,8.4l0,0.11c0,-1 0,-3.73 0,-3.94c-0.39,-3 -2.87,-8.47 -6.16,-9.08a4,4 0 0 0 -4.58,3.73c-0.19,2.36 1.52,4.72 3.19,6.2c1.88,1.68 7.09,3.31 7.51,3.44a70.55,70.55 0 0 0 -2.18,8.98c-0.32,1.79 -0.58,3.61 -0.83,5.43c0,-0.85 0,-1.61 0,-1.71c-0.39,-3 -2.87,-8.47 -6.17,-9.08a4,4 0 0 0 -4.57,3.73c-0.19,2.35 1.52,4.71 3.19,6.2s6.1,3 7.28,3.36l-0.27,2.1c-0.4,3.36 -0.78,6.71 -1.26,10c-0.17,1.16 -0.38,2.29 -0.58,3.42c0,-0.75 0,-1.38 -0.05,-1.48c-0.38,-3 -2.87,-8.47 -6.16,-9.08a4,4 0 0 0 -4.57,3.73c-0.19,2.35 1.52,4.71 3.18,6.2s5.68,2.84 7.07,3.29c-0.24,1.16 -0.48,2.31 -0.77,3.42c-0.22,0.75 -0.37,1.49 -0.63,2.23s-0.47,1.48 -0.71,2.21c-0.5,1.38 -1,2.81 -1.54,4.15c-0.35,0.93 -0.71,1.81 -1.07,2.7c0.18,-1.15 0.49,-3.41 0.49,-3.6a15.38,15.38 0 0 0 -2.06,-7.48a4.29,4.29 0 0 0 -0.06,-0.88a4,4 0 0 0 -4.84,-3.36c-3.24,0.86 -5.29,6.54 -5.44,9.53c0,0.17 0.1,2.1 0.19,3.31c-0.16,-0.71 -0.31,-1.39 -0.48,-2.11c-0.34,-1.44 -0.73,-2.85 -1.13,-4.38c-0.22,-0.73 -0.44,-1.47 -0.67,-2.22s-0.52,-1.5 -0.78,-2.26c-0.64,-1.75 -1.37,-3.49 -2.15,-5.23c1.25,-0.3 5.68,-1.43 7.46,-2.8s3.65,-3.58 3.64,-5.95a4,4 0 0 0 -4.28,-4.05c-3.33,0.36 -6.22,5.66 -6.83,8.59c0,0.18 -0.23,2.33 -0.32,3.52c-0.47,-1 -0.94,-2.09 -1.46,-3.12c-1.49,-3 -3.08,-6 -4.67,-9l-1.43,-2.74c0.45,-0.11 5.74,-1.34 7.74,-2.86c1.77,-1.36 3.65,-3.59 3.63,-5.95a4,4 0 0 0 -4.28,-4.06c-3.33,0.36 -6.22,5.66 -6.82,8.59c-0.05,0.22 -0.33,3.32 -0.36,4.11c-1.05,-2 -2.07,-4 -3,-6.07a69.29,69.29 0 0 1 -3.31,-8.35c0.21,0 5.74,-1.3 7.78,-2.87c1.77,-1.36 3.65,-3.58 3.64,-5.95a4,4 0 0 0 -4.28,-4.05c-3.33,0.36 -6.22,5.66 -6.83,8.59c0,0.23 -0.34,3.56 -0.35,4.17c-0.06,-0.17 -0.13,-0.34 -0.18,-0.51a50.67,50.67 0 0 1 -1.69,-8.91c-0.19,-1.66 -0.27,-3.26 -0.32,-4.82c1,-0.13 5.87,-0.77 7.86,-2s4,-3.16 4.27,-5.51a4,4 0 0 0 -3.81,-4.5c-3.35,0 -6.8,4.94 -7.73,7.79c0,0.15 -0.38,1.78 -0.61,3c0,-0.7 0,-1.43 0,-2.1c0,-2.53 0.16,-4.85 0.32,-6.9c0.1,-1.17 0.21,-2.22 0.33,-3.21c1,-0.66 4.84,-3.4 6,-5.35s2.12,-4.66 1.25,-6.86a4,4 0 0 0 -5.46,-2.24c-3,1.54 -3.75,7.52 -3.26,10.47c0,0.26 1.16,4.17 1.22,4.14l0.05,-0.05c-0.13,1 -0.26,2 -0.38,3.07c-0.2,2.06 -0.41,4.38 -0.47,6.92a67.92,67.92 0 0 0 0.2,8.21a51.8,51.8 0 0 0 1.52,9.06l0,0.11c-0.53,-0.83 -2.08,-3.09 -2.22,-3.25c-2,-2.27 -7.06,-5.48 -10.14,-4.18a4,4 0 0 0 -1.76,5.63c1.17,2.02 3.89,3.04 6.1,3.36z" fill="#263238" id="svg_4"/>
    <path d="m75.96,418.82s1.07,-3.91 1.11,-4.16c0.41,-3 -0.54,-8.93 -3.55,-10.39a4,4 0 0 0 -5.39,2.39c-0.81,2.22 0.21,4.95 1.43,6.82c1.42,2.2 6.4,5.34 6.4,5.34z" fill="#263238" id="svg_5"/>
    <path d="m627.93,417.53c2.4,1.05 8.28,0.91 8.28,0.91s-1.26,-3.84 -1.37,-4.08c-1.29,-2.7 -5.37,-7.15 -8.69,-6.7a4,4 0 0 0 -3.18,5c0.55,2.26 2.91,3.97 4.96,4.87z" fill="#263238" id="svg_6"/>
    <path d="m629.95,434.55c2.5,0.37 7.74,-1.15 8.16,-1.28a71.18,71.18 0 0 0 3.18,8.81c0.72,1.67 1.5,3.33 2.3,5c-0.47,-0.7 -0.91,-1.32 -1,-1.4c-2,-2.27 -7.06,-5.48 -10.15,-4.18a4,4 0 0 0 -1.75,5.64c1.14,2.07 3.86,3.09 6.07,3.41s6.74,-0.88 7.93,-1.21c0.31,0.63 0.62,1.26 0.94,1.89c1.52,3 3,6 4.45,9c0.5,1.06 0.95,2.12 1.41,3.18c-0.43,-0.63 -0.79,-1.15 -0.86,-1.22c-2,-2.26 -7.06,-5.48 -10.14,-4.17a4,4 0 0 0 -1.76,5.63c1.14,2.07 3.86,3.09 6.07,3.42s6.31,-0.77 7.72,-1.16c0.43,1.1 0.87,2.19 1.24,3.28c0.23,0.74 0.51,1.44 0.71,2.21s0.41,1.49 0.62,2.22c0.34,1.44 0.71,2.91 1,4.31c0.21,1 0.4,1.91 0.59,2.85c-0.48,-1.06 -1.47,-3.11 -1.57,-3.27c-1.59,-2.53 -6.16,-6.49 -9.4,-5.66a4,4 0 0 0 -2.59,5.3c0.81,2.22 3.35,3.64 5.49,4.3c2.35,0.72 7.55,0.06 8.2,0c0.32,1.56 0.61,3.07 0.86,4.51q0.27,1.59 0.51,3.06l2.09,0c-0.2,-1.09 -0.42,-2.23 -0.65,-3.42c-0.31,-1.59 -0.68,-3.27 -1.07,-5a45,45 0 0 0 4.58,-2.16c1.72,1.86 6.11,4 6.68,4.31c-0.6,1.47 -1.2,2.89 -1.78,4.23l-0.9,2l2.27,0l0.53,-1.26c0.61,-1.49 1.24,-3.1 1.86,-4.75c0.63,0.13 5.79,1.18 8.19,0.64c2.18,-0.5 4.82,-1.73 5.79,-3.88a4,4 0 0 0 -2.18,-5.48c-3.18,-1.07 -8,2.54 -9.8,4.95c-0.11,0.14 -1.07,1.81 -1.66,2.87c0.25,-0.68 0.5,-1.33 0.76,-2c0.5,-1.39 1,-2.78 1.47,-4.28c0.22,-0.73 0.44,-1.47 0.67,-2.21s0.39,-1.54 0.59,-2.32c0.44,-1.81 0.78,-3.67 1.09,-5.55c1.21,0.44 5.54,1.94 7.77,1.78s5,-1 6.32,-2.95a4,4 0 0 0 -1.4,-5.75c-3,-1.53 -8.31,1.3 -10.43,3.41c-0.13,0.13 -1.48,1.81 -2.2,2.75c0.17,-1.13 0.36,-2.26 0.5,-3.41c0.41,-3.32 0.72,-6.69 1.05,-10.06c0.1,-1 0.21,-2.05 0.32,-3.08c0.43,0.16 5.53,2.06 8,1.88c2.22,-0.15 5,-1 6.31,-2.95a4,4 0 0 0 -1.33,-5.75c-3,-1.53 -8.32,1.3 -10.43,3.41c-0.16,0.16 -2.1,2.58 -2.57,3.22c0.24,-2.26 0.5,-4.51 0.85,-6.72a68.68,68.68 0 0 1 1.93,-8.85c0.2,0.08 5.51,2.08 8.07,1.9c2.23,-0.15 5,-1 6.32,-2.95a4,4 0 0 0 -1.33,-5.75c-3,-1.53 -8.32,1.3 -10.44,3.41c-0.16,0.16 -2.25,2.77 -2.59,3.28c0,-0.17 0.08,-0.35 0.13,-0.52a51.51,51.51 0 0 1 3.5,-8.37c0.77,-1.49 1.58,-2.87 2.4,-4.2c1,0.48 5.32,2.6 7.65,2.69s5.1,-0.41 6.6,-2.24a4,4 0 0 0 -0.7,-5.86c-2.79,-1.85 -8.4,0.37 -10.74,2.24c-0.13,0.1 -1.3,1.27 -2.15,2.14c0.38,-0.59 0.76,-1.21 1.13,-1.77c1.4,-2.11 2.82,-4 4.08,-5.58c0.73,-0.92 1.4,-1.74 2,-2.49c1.18,0 5.92,-0.17 8,-1.14s4.33,-2.72 4.82,-5a4,4 0 0 0 -3.31,-4.88c-3.33,-0.36 -7.29,4.2 -8.51,6.93c-0.1,0.24 -1.32,4.12 -1.26,4.12l0.07,0c-0.63,0.72 -1.3,1.49 -2,2.35c-1.3,1.6 -2.76,3.42 -4.21,5.51a70.17,70.17 0 0 0 -4.37,6.95a52.81,52.81 0 0 0 -3.73,8.4l0,0.11c0,-1 0,-3.73 -0.05,-3.94c-0.39,-3 -2.87,-8.47 -6.16,-9.08a4,4 0 0 0 -4.58,3.73c-0.19,2.36 1.52,4.72 3.19,6.2c1.87,1.68 7.09,3.31 7.51,3.44a70.55,70.55 0 0 0 -2.21,9.09c-0.32,1.79 -0.58,3.61 -0.83,5.43c0,-0.85 0,-1.61 0,-1.71c-0.39,-3 -2.87,-8.47 -6.17,-9.08a4,4 0 0 0 -4.57,3.73c-0.19,2.35 1.52,4.71 3.19,6.2s6.1,3 7.28,3.36l-0.27,2.1c-0.4,3.36 -0.78,6.71 -1.26,10c-0.17,1.16 -0.38,2.29 -0.58,3.42c0,-0.75 0,-1.38 0,-1.48c-0.38,-3 -2.87,-8.47 -6.16,-9.08a4,4 0 0 0 -4.57,3.73c-0.19,2.35 1.52,4.71 3.18,6.2s5.68,2.84 7.07,3.29c-0.24,1.16 -0.48,2.31 -0.77,3.42c-0.22,0.75 -0.37,1.49 -0.63,2.23s-0.47,1.48 -0.71,2.21c-0.5,1.38 -1,2.81 -1.54,4.15c-0.35,0.93 -0.71,1.81 -1.07,2.7c0.18,-1.15 0.49,-3.41 0.49,-3.6a15.38,15.38 0 0 0 -2.06,-7.48a4.29,4.29 0 0 0 -0.06,-0.88a4,4 0 0 0 -4.84,-3.36c-3.24,0.86 -5.29,6.54 -5.44,9.53c0,0.17 0.1,2.1 0.19,3.31c-0.16,-0.71 -0.31,-1.39 -0.48,-2.11c-0.34,-1.44 -0.73,-2.85 -1.13,-4.38c-0.22,-0.73 -0.44,-1.47 -0.67,-2.22s-0.52,-1.5 -0.78,-2.26c-0.64,-1.75 -1.37,-3.49 -2.15,-5.23c1.25,-0.3 5.68,-1.43 7.46,-2.8s3.65,-3.58 3.64,-5.95a4,4 0 0 0 -4.28,-4.05c-3.33,0.36 -6.22,5.66 -6.83,8.59c0,0.18 -0.23,2.33 -0.32,3.52c-0.47,-1 -0.94,-2.09 -1.46,-3.12c-1.49,-3 -3.08,-6 -4.67,-9l-1.43,-2.74c0.45,-0.11 5.74,-1.34 7.74,-2.86c1.77,-1.36 3.65,-3.59 3.63,-5.95a4,4 0 0 0 -4.28,-4.06c-3.33,0.36 -6.22,5.66 -6.82,8.59c0,0.22 -0.33,3.32 -0.36,4.11c-1,-2 -2.07,-4 -3,-6.07a69.29,69.29 0 0 1 -3.31,-8.42c0.21,0 5.74,-1.3 7.78,-2.87c1.77,-1.36 3.65,-3.58 3.64,-5.95a4,4 0 0 0 -4.28,-4.05c-3.33,0.36 -6.22,5.66 -6.83,8.59c0,0.23 -0.34,3.56 -0.35,4.17c-0.06,-0.17 -0.13,-0.34 -0.18,-0.51a50.67,50.67 0 0 1 -1.69,-8.91c-0.19,-1.66 -0.27,-3.26 -0.32,-4.82c1.05,-0.13 5.87,-0.77 7.86,-2s4,-3.16 4.27,-5.51a4,4 0 0 0 -3.81,-4.5c-3.35,0 -6.8,4.94 -7.73,7.79c-0.05,0.15 -0.38,1.78 -0.61,3c0,-0.7 0,-1.43 0,-2.1c0,-2.53 0.16,-4.85 0.32,-6.9c0.1,-1.17 0.21,-2.22 0.33,-3.21c1,-0.66 4.84,-3.4 6,-5.35s2.12,-4.66 1.25,-6.86a4,4 0 0 0 -5.46,-2.24c-3,1.54 -3.75,7.52 -3.26,10.47c0,0.26 1.16,4.17 1.22,4.14l0.05,-0.05c-0.13,1 -0.26,2 -0.38,3.07c-0.2,2.06 -0.41,4.38 -0.47,6.92a67.92,67.92 0 0 0 0.2,8.21a51.8,51.8 0 0 0 1.52,9.06l0,0.11c-0.53,-0.83 -2.08,-3.09 -2.22,-3.25c-2,-2.27 -7.06,-5.48 -10.14,-4.18a4,4 0 0 0 -1.76,5.63c1.17,2.02 3.89,3.04 6.1,3.36z" fill="#263238" id="svg_7"/>
    <path d="m687.4,418.82s1.07,-3.91 1.11,-4.16c0.41,-3 -0.54,-8.93 -3.55,-10.39a4,4 0 0 0 -5.39,2.39c-0.81,2.22 0.21,4.95 1.43,6.82c1.4,2.2 6.4,5.34 6.4,5.34z" fill="#263238" id="svg_8"/>
   </g>
   <g id="freepik--Floor--inject-33">
    <line fill="none" id="svg_9" stroke="#263238" stroke-miterlimit="10" x1="19.66" x2="714.64" y1="489.02" y2="489.02"/>
   </g>
   <g id="freepik--Globe--inject-33">
    <g id="svg_10" opacity="0.3">
     <circle cx="370.36" cy="324.21" fill="none" id="svg_11" r="164.81" stroke="#000" stroke-linecap="round" stroke-linejoin="round"/>
     <ellipse cx="370.36" cy="322.98" fill="none" id="svg_12" rx="107.94" ry="164.81" stroke="#000" stroke-linecap="round" stroke-linejoin="round"/>
     <ellipse cx="370.36" cy="322.98" fill="none" id="svg_13" rx="37.71" ry="164.81" stroke="#000" stroke-linecap="round" stroke-linejoin="round"/>
     <line fill="none" id="svg_14" stroke="#000" stroke-linecap="round" stroke-linejoin="round" x1="285.21" x2="455.81" y1="183.26" y2="183.26"/>
     <line fill="none" id="svg_15" stroke="#000" stroke-linecap="round" stroke-linejoin="round" x1="222.26" x2="518.75" y1="253.36" y2="253.36"/>
     <line fill="none" id="svg_16" stroke="#000" stroke-linecap="round" stroke-linejoin="round" x1="206.23" x2="534.78" y1="323.45" y2="323.45"/>
     <line fill="none" id="svg_17" stroke="#000" stroke-linecap="round" stroke-linejoin="round" x1="220.86" x2="520.15" y1="393.54" y2="393.54"/>
     <line fill="none" id="svg_18" stroke="#000" stroke-linecap="round" stroke-linejoin="round" x1="283.05" x2="457.96" y1="463.64" y2="463.64"/>
    </g>
   </g>
   <g id="freepik--device-2--inject-33">
    <path d="m706.26,173.66l0,-40.15a3.08,3.08 0 0 0 -3.08,-3.08l-55.28,0a3.08,3.08 0 0 0 -3.08,3.08l0,40.15l-3.56,0l0,1.31a1.7,1.7 0 0 0 1.7,1.7l65.16,0a1.69,1.69 0 0 0 1.69,-1.7l0,-1.31l-3.55,0z" fill="#263238" id="svg_19" stroke="#263238" stroke-linecap="round" stroke-linejoin="round"/>
    <path d="m651.23,129.28l53.07,0a4.19,4.19 0 0 1 4.19,4.19l0,39.14a0,0 0 0 1 0,0l-61.45,0a0,0 0 0 1 0,0l0,-39.1a4.19,4.19 0 0 1 4.19,-4.23z" fill="#fff" id="svg_20" stroke="#263238" stroke-linecap="round" stroke-linejoin="round"/>
    <path d="m652.4,130.85l50.76,0a4.19,4.19 0 0 1 4.19,4.19l0,36.08a0,0 0 0 1 0,0l-59.16,0a0,0 0 0 1 0,0l0,-36.08a4.19,4.19 0 0 1 4.21,-4.19z" fill="#7F00FF" id="svg_21" stroke="#263238" stroke-linecap="round" stroke-linejoin="round"/>
    <path d="m643.49,172.55l68.55,0a0,0 0 0 1 0,0l0,0.73a2.3,2.3 0 0 1 -2.3,2.3l-63.95,0a2.3,2.3 0 0 1 -2.3,-2.3l0,-0.71a0,0 0 0 1 0,-0.02z" fill="#fff" id="svg_22" stroke="#263238" stroke-linecap="round" stroke-linejoin="round"/>
   </g>
   <g id="freepik--device-1--inject-33">
    <rect fill="#263238" height="99.81" id="svg_23" rx="6.25" stroke="#263238" stroke-linecap="round" stroke-linejoin="round" width="55.21" x="547.25" y="53.57"/>
    <rect fill="#fff" height="99.81" id="svg_24" rx="6.25" stroke="#263238" stroke-linecap="round" stroke-linejoin="round" width="55.21" x="551.63" y="49.19"/>
    <path d="m606.84,61.93l0,-5.19a7.55,7.55 0 0 0 -7.55,-7.55l-40.11,0a7.55,7.55 0 0 0 -7.55,7.55l0,5.19l55.21,0z" fill="#7F00FF" id="svg_25" stroke="#263238" stroke-linecap="round" stroke-linejoin="round"/>
    <path d="m551.63,134.13l0,7.32a7.55,7.55 0 0 0 7.55,7.55l40.11,0a7.55,7.55 0 0 0 7.55,-7.55l0,-7.32l-55.21,0z" fill="#7F00FF" id="svg_26" stroke="#263238" stroke-linecap="round" stroke-linejoin="round"/>
   </g>
   <g id="freepik--wifi-icon--inject-33">
    <path d="m460.06,63.33a30.43,30.43 0 0 0 -15.76,4.33a58.64,58.64 0 0 0 -5.65,4.16a3.68,3.68 0 0 1 -3.51,0.84a3.2,3.2 0 0 1 -1.81,-4.71a7.2,7.2 0 0 1 1.4,-1.57a37.26,37.26 0 0 1 21.4,-9.48c11.18,-1.13 20.91,2.28 29.34,9.6a4,4 0 0 1 1.68,2.78a3.26,3.26 0 0 1 -5.19,3c-0.66,-0.46 -1.23,-1 -1.86,-1.55a31.08,31.08 0 0 0 -19.2,-7.3l-0.84,-0.1z" fill="#263238" id="svg_27"/>
    <path d="m476.55,81.18a3.63,3.63 0 0 1 -2.58,-1.1a20,20 0 0 0 -26.75,-1c-0.56,0.47 -1.1,1 -1.69,1.39a3.28,3.28 0 0 1 -4.44,-0.47a3.23,3.23 0 0 1 0.1,-4.4a24.58,24.58 0 0 1 9.5,-6.14a26.2,26.2 0 0 1 20.72,0.85a24.93,24.93 0 0 1 7.4,5.17a3.26,3.26 0 0 1 0.71,3.7a3.14,3.14 0 0 1 -2.97,2z" fill="#263238" id="svg_28"/>
    <path d="m459.94,78.89a15.58,15.58 0 0 1 11.5,5a3.3,3.3 0 0 1 0.13,4.52a3.37,3.37 0 0 1 -4.63,0.29a17.19,17.19 0 0 0 -3.66,-2.42c-3.48,-1.42 -6.67,-0.63 -9.44,1.86a4,4 0 0 1 -3.44,1.3a3.22,3.22 0 0 1 -2,-5.16a13.7,13.7 0 0 1 5.61,-4.1a15.75,15.75 0 0 1 5.93,-1.29z" fill="#263238" id="svg_29"/>
    <path d="m460.09,98.4a3.93,3.93 0 0 1 -4,-4a4,4 0 0 1 3.94,-4a4,4 0 1 1 0.1,8l-0.04,0z" fill="#263238" id="svg_30"/>
   </g>
   <g id="freepik--Comments--inject-33">
    <rect fill="#263238" height="31.53" id="svg_31" rx="7.25" stroke="#263238" stroke-linecap="round" stroke-linejoin="round" width="77.53" x="648.02" y="243.89"/>
    <rect fill="#fff" height="31.53" id="svg_32" rx="7.25" stroke="#263238" stroke-linecap="round" stroke-linejoin="round" width="77.53" x="649.94" y="241.69"/>
    <path d="m669.4,252.64a7.22,7.22 0 1 1 -7.22,-7.22a7.21,7.21 0 0 1 7.22,7.22z" fill="#7F00FF" id="svg_33" stroke="#263238" stroke-linecap="round" stroke-linejoin="round"/>
    <line fill="none" id="svg_34" stroke="#263238" stroke-linecap="round" stroke-linejoin="round" x1="675.82" x2="718.81" y1="249.86" y2="249.86"/>
    <line fill="none" id="svg_35" stroke="#263238" stroke-linecap="round" stroke-linejoin="round" x1="675.82" x2="718.81" y1="257.08" y2="257.08"/>
    <line fill="none" id="svg_36" stroke="#263238" stroke-linecap="round" stroke-linejoin="round" x1="675.82" x2="718.81" y1="264.29" y2="264.29"/>
    <rect fill="#263238" height="31.53" id="svg_37" rx="7.25" stroke="#263238" stroke-linecap="round" stroke-linejoin="round" width="77.53" x="648.02" y="289.3"/>
    <rect fill="#fff" height="31.53" id="svg_38" rx="7.25" stroke="#263238" stroke-linecap="round" stroke-linejoin="round" width="77.53" x="649.94" y="287.11"/>
    <circle cx="662.22" cy="298.05" fill="#7F00FF" id="svg_39" r="7.21" stroke="#263238" stroke-linecap="round" stroke-linejoin="round"/>
    <line fill="none" id="svg_40" stroke="#263238" stroke-linecap="round" stroke-linejoin="round" x1="675.82" x2="718.81" y1="295.28" y2="295.28"/>
    <line fill="none" id="svg_41" stroke="#263238" stroke-linecap="round" stroke-linejoin="round" x1="675.82" x2="718.81" y1="302.49" y2="302.49"/>
    <line fill="none" id="svg_42" stroke="#263238" stroke-linecap="round" stroke-linejoin="round" x1="675.82" x2="718.81" y1="309.7" y2="309.7"/>
   </g>
   <g id="freepik--Email--inject-33">
    <rect fill="#263238" height="44.68" id="svg_43" stroke="#263238" stroke-miterlimit="10" width="70.07" x="272.84" y="35.88"/>
    <rect fill="#fff" height="44.68" id="svg_44" stroke="#263238" stroke-linecap="round" stroke-linejoin="round" width="70.07" x="276.53" y="32.18"/>
    <polyline fill="none" id="svg_45" points="276.52508544921875,32.181827545166016 311.5650939941406,54.52182960510254 346.5950927734375,32.181827545166016 " stroke="#263238" stroke-linecap="round" stroke-linejoin="round"/>
    <circle cx="342.91" cy="35.88" fill="#263238" id="svg_46" r="9.65" stroke="#263238" stroke-miterlimit="10"/>
    <path d="m342.85,41.28a3.24,3.24 0 0 1 -1.85,-0.43a2.11,2.11 0 0 1 -0.84,-1.21a6.67,6.67 0 0 1 -0.22,-1.82l2.21,0a5.79,5.79 0 0 0 0.07,1a1,1 0 0 0 0.25,0.57a0.68,0.68 0 0 0 0.53,0.16a0.55,0.55 0 0 0 0.51,-0.29a1.88,1.88 0 0 0 0.18,-0.79c0,-0.34 0,-0.75 0,-1.24a7,7 0 0 0 -0.06,-1a1.64,1.64 0 0 0 -0.25,-0.68a0.65,0.65 0 0 0 -0.56,-0.26a0.73,0.73 0 0 0 -0.56,0.25a1.58,1.58 0 0 0 -0.32,0.77l-2,0l0.2,-6.41l5.26,0l0,1.92l-3.35,0l-0.12,2.29a1,1 0 0 1 0.52,-0.33a3.16,3.16 0 0 1 0.82,-0.19a2.07,2.07 0 0 1 1.44,0.31a2.45,2.45 0 0 1 0.88,1.23a6.21,6.21 0 0 1 0.29,2a10.49,10.49 0 0 1 -0.11,1.64a3.5,3.5 0 0 1 -0.42,1.29a2.15,2.15 0 0 1 -0.92,0.84a3.59,3.59 0 0 1 -1.58,0.38z" fill="#7F00FF" id="svg_47"/>
   </g>
   <g id="freepik--speech-bubble--inject-33">
    <path d="m203.59,196.93l-36.4,0a5.28,5.28 0 0 0 -5.29,5.28l0,24.83a5.29,5.29 0 0 0 5.29,5.29l5,0l-6.91,16.33l15.81,-16.33l22.47,0a5.28,5.28 0 0 0 5.28,-5.29l0,-24.83a5.27,5.27 0 0 0 -5.25,-5.28z" fill="#263238" id="svg_48" stroke="#263238" stroke-linecap="round" stroke-linejoin="round"/>
    <path d="m207.27,195.55l-36.4,0a5.27,5.27 0 0 0 -5.28,5.28l0,24.83a5.27,5.27 0 0 0 5.28,5.28l5,0l-6.88,16.34l15.82,-16.34l22.46,0a5.28,5.28 0 0 0 5.29,-5.28l0,-24.83a5.28,5.28 0 0 0 -5.29,-5.28z" fill="#fff" id="svg_49" stroke="#263238" stroke-linecap="round" stroke-linejoin="round"/>
    <path d="m199.9,213.28l-1.34,1.34l-9.16,9.12l-10.43,-10.46a6.45,6.45 0 0 1 9.13,-9.12l1.34,1.34l1.33,-1.34a6.45,6.45 0 0 1 9.13,9.12z" fill="#7F00FF" id="svg_50" stroke="#263238" stroke-linecap="round" stroke-linejoin="round"/>
   </g>
   <g id="freepik--Icons--inject-33">
    <path d="m147.25,116.77l-7,0a26,26 0 0 1 -16.34,-6l-0.8,-0.66a0.49,0.49 0 0 1 -0.18,-0.42l1.87,-26.17a0.5,0.5 0 0 1 0.33,-0.44a44.77,44.77 0 0 0 10,-5.22c1.82,-1.41 6,-5.35 5.12,-11.6c-0.32,-2.37 -0.16,-3.88 0.5,-4.63a1.51,1.51 0 0 1 1.18,-0.53c0.91,0 2.07,0.7 3.44,2.07c2.92,2.92 3.13,6.4 3.09,9.44a27.72,27.72 0 0 1 -2.39,9.67c3.35,0.12 15.07,0.61 16.8,1.35a6.32,6.32 0 0 1 2.79,3.6a5.62,5.62 0 0 1 0.13,4.29a8.55,8.55 0 0 1 -2.21,2.86a5.05,5.05 0 0 1 0.07,4.35a15.14,15.14 0 0 1 -1.94,3a5.66,5.66 0 0 1 0.91,4.35a8.62,8.62 0 0 1 -3.08,4.33a3.72,3.72 0 0 1 -0.74,3.33a6.84,6.84 0 0 1 -4.86,2.87a61.9,61.9 0 0 1 -6.69,0.16z" fill="#fff" id="svg_51"/>
    <path d="m141.95,61.61c0.82,0 1.93,0.76 3.09,1.92c2.67,2.67 3,5.78 2.94,9.08c-0.06,4.75 -2.67,10.15 -2.67,10.15s15.49,0.54 17.36,1.34s3.73,5.07 2.67,7.18a7.46,7.46 0 0 1 -2.4,2.94a4.71,4.71 0 0 1 0.26,4.27a13.2,13.2 0 0 1 -2.13,3.2a5.32,5.32 0 0 1 1.06,4.28c-0.53,2.4 -3.2,4.27 -3.2,4.27s0.8,1.34 -0.54,3.21a6.33,6.33 0 0 1 -4.54,2.67c-0.53,0.09 -3.23,0.12 -6.59,0.12l-7,0a25.48,25.48 0 0 1 -16,-5.84l-0.8,-0.66l1.87,-26.18a45.15,45.15 0 0 0 10.13,-5.28c2.65,-2 6.11,-6.19 5.31,-12.07c-0.46,-3.32 0.11,-4.59 1.18,-4.59m0,-1l0,0a2,2 0 0 0 -1.55,0.66c-0.77,0.88 -1,2.48 -0.61,5c0.81,6 -3.18,9.78 -4.94,11.13a44,44 0 0 1 -9.91,5.15a1,1 0 0 0 -0.65,0.87l-1.89,26.24a1,1 0 0 0 0.36,0.84l0.8,0.66a26.52,26.52 0 0 0 16.66,6.11l7,0a62.35,62.35 0 0 0 6.76,-0.14a7.32,7.32 0 0 0 5.19,-3.07a4.45,4.45 0 0 0 0.89,-3.44a8.82,8.82 0 0 0 3,-4.41a6.08,6.08 0 0 0 -0.79,-4.42a16.22,16.22 0 0 0 1.78,-2.82a5.4,5.4 0 0 0 0.08,-4.43a9.29,9.29 0 0 0 2.05,-2.78a6.11,6.11 0 0 0 -0.11,-4.69c-0.54,-1.48 -1.63,-3.28 -3.06,-3.89c-1.69,-0.73 -11.93,-1.2 -16.25,-1.36a27.27,27.27 0 0 0 2.17,-9.2c0,-3.14 -0.18,-6.74 -3.23,-9.8c-1.49,-1.49 -2.74,-2.21 -3.8,-2.21l0.05,0z" fill="#263238" id="svg_52"/>
    <rect fill="#263238" height="33.12" id="svg_53" stroke="#263238" stroke-linecap="round" stroke-linejoin="round" width="22.17" x="103.37" y="81.69"/>
    <path d="m91.78,173.99l-1.59,1.6l-10.86,10.86l-12.46,-12.46a7.68,7.68 0 1 1 10.86,-10.86l1.6,1.6l1.58,-1.6a7.68,7.68 0 0 1 10.87,10.86z" fill="#263238" id="svg_54" stroke="#263238" stroke-linecap="round" stroke-linejoin="round"/>
    <path d="m211.2,149.9l-2.26,2.26l-15.42,15.41l-17.67,-17.67a10.9,10.9 0 0 1 15.41,-15.41l2.26,2.26l2.26,-2.26a10.9,10.9 0 1 1 15.42,15.41z" fill="#7F00FF" id="svg_55" stroke="#263238" stroke-linecap="round" stroke-linejoin="round"/>
   </g>
   <g id="freepik--character-3--inject-33">
    <path d="m628.16,248.81a40.14,40.14 0 0 0 8.93,-10.07c3.44,-5.86 6.37,-12.36 5.22,-12.49s-26.76,-2.93 -36.58,-2.81s-8.54,-0.38 -8.54,-0.38l0,4.62s12.49,3.44 15.68,4.08s12.62,2.92 12.62,2.92l-3.19,2.55l5.86,11.58z" fill="#fff" id="svg_56" stroke="#263238" stroke-linecap="round" stroke-linejoin="round"/>
    <path d="m625.49,234.68a44.43,44.43 0 0 0 7.64,-2.29" fill="#fff" id="svg_57" stroke="#263238" stroke-linecap="round" stroke-linejoin="round"/>
    <path d="m569.4,212.04s-9.3,4.14 -11,11.88s-4.31,20 -8.1,26.52s-17.22,8.1 -17.73,16s13.61,13.45 14.83,16.24s-9.48,7.23 -9.13,15.32s7.06,10.33 11,10s12,-4.13 13.09,-1.55s4.82,10 14.29,5.51s9.64,-11.36 14.12,-9.81s16,0.68 14.81,-13.78s2.76,-26.18 0.35,-35.82s-6.2,-9.47 -8.1,-15s3.45,-8.61 0.35,-17.74s-13.78,-10.5 -17.57,-10.33a33.18,33.18 0 0 0 -11.21,2.56z" fill="#263238" id="svg_58" stroke="#263238" stroke-linecap="round" stroke-linejoin="round"/>
    <path d="m604.52,374.49s0.25,14.85 -1.48,24.75s-3.71,10.57 -3.46,23.19s-3.18,42.31 -3.18,42.31s-7.42,8.91 -6.19,10.4s6.44,3 8.66,5.93s4,5.45 10.64,7.18s7.43,0.25 5.94,-1.49s-7.42,-13.11 -8.91,-17.32a31.84,31.84 0 0 1 -2,-7.42c0,-0.74 16.33,-55.36 18.07,-62s3,-25 3,-25l-21.09,-0.53z" fill="#fff" id="svg_59" stroke="#263238" stroke-linecap="round" stroke-linejoin="round"/>
    <path d="m611.76,480.56l-4,0.76a33,33 0 0 1 -9.9,-10.39c-1.15,-1.85 -2,-3.37 -2.75,-4.61c-2.06,2.63 -5.83,7.72 -4.92,8.82c1.24,1.48 6.44,3 8.66,5.93s4,5.45 10.64,7.18s7.43,0.25 5.94,-1.49a50.72,50.72 0 0 1 -3.67,-6.2z" fill="#263238" id="svg_60" stroke="#263238" stroke-linecap="round" stroke-linejoin="round"/>
    <path d="m582.26,382.68l0,8.66s-11.14,7.67 -15.1,15.34s-29,46.76 -29.94,48s-14.82,18.34 -12.12,24.72s6.93,2.72 9.9,-1s7.91,-21.28 7.91,-21.28s43.06,-45.28 49.74,-51.21s10.64,-10.15 11.87,-14.35a58.65,58.65 0 0 0 1.74,-8.17s-18.07,1.29 -24,-0.71z" fill="#fff" id="svg_61" stroke="#263238" stroke-linecap="round" stroke-linejoin="round"/>
    <path d="m528.32,472.47l3.82,-11c-4,5.87 -8.71,14 -7,17.91c2.72,6.44 6.93,2.72 9.9,-1c1.33,-1.66 3.06,-6.11 4.56,-10.51l-4.81,7.3l-6.47,-2.7z" fill="#263238" id="svg_62" stroke="#263238" stroke-linecap="round" stroke-linejoin="round"/>
    <path d="m584.57,297.37l0.81,7.67s-8.54,10.67 -10.32,28.81s-1.24,48.56 -1.24,48.56s4.09,3.38 16.72,4.45a75.57,75.57 0 0 0 22.05,-1.25l1.78,-0.35l0.36,-4.27a40,40 0 0 0 11,-0.71a44,44 0 0 0 11.92,-4.09s-0.71,-29.35 -5.69,-46.07a223,223 0 0 0 -12.1,-31.13l-2.13,-9.42s-21.16,6.89 -33.16,7.8z" fill="#7F00FF" id="svg_63" stroke="#263238" stroke-linecap="round" stroke-linejoin="round"/>
    <path d="m612.4,301.48s1.78,11.92 2.32,13.88s-2.32,4.32 -2.32,4.32s3.92,35.21 2.14,57.27" fill="none" id="svg_64" stroke="#263238" stroke-linecap="round" stroke-linejoin="round"/>
    <line fill="none" id="svg_65" stroke="#263238" stroke-linecap="round" stroke-linejoin="round" x1="608.68" x2="610.99" y1="297.93" y2="310.02"/>
    <path d="m617.93,301.68s2.84,6.94 5,19.21" fill="none" id="svg_66" stroke="#263238" stroke-linecap="round" stroke-linejoin="round"/>
    <path d="m596.94,310.2s-3.91,7.29 -3,19.56" fill="none" id="svg_67" stroke="#263238" stroke-linecap="round" stroke-linejoin="round"/>
    <path d="m598.72,311.27s-0.89,14.05 -1.25,28.1" fill="none" id="svg_68" stroke="#263238" stroke-linecap="round" stroke-linejoin="round"/>
    <line fill="none" id="svg_69" stroke="#263238" stroke-linecap="round" stroke-linejoin="round" x1="594.27" x2="595.16" y1="298.82" y2="305.04"/>
    <line fill="none" id="svg_70" stroke="#263238" stroke-linecap="round" stroke-linejoin="round" x1="596.41" x2="597.29" y1="298.64" y2="304.33"/>
    <line fill="none" id="svg_71" stroke="#263238" stroke-linecap="round" stroke-linejoin="round" x1="614.01" x2="614.9" y1="293.3" y2="298.46"/>
    <line fill="none" id="svg_72" stroke="#263238" stroke-linecap="round" stroke-linejoin="round" x1="616.33" x2="617.39" y1="292.24" y2="297.75"/>
    <path d="m598.08,254.03s2,-1.52 5,-3.95s22.8,-15.87 22.8,-15.87l9.93,21.77l-19.47,9.91s5.1,20 4.59,22.69s-4.46,3.69 -13.38,6.62a101.18,101.18 0 0 1 -24.89,4.48c-4.2,0 -3.19,-0.25 -5.48,-5.22s-11.34,-25.11 -8.41,-33.14s10.38,-6.34 12.49,-5.74s6.14,1.9 6.14,1.9l10.68,-3.45z" fill="#fff" id="svg_73" stroke="#263238" stroke-linecap="round" stroke-linejoin="round"/>
    <path d="m577.88,247.93s3.69,7.84 5.27,10s1,3.86 6.73,3.64s9.24,-3.92 8.45,-6.18a115.77,115.77 0 0 1 -3.4,-14.27s-0.56,4.87 -4.41,7.47s-12.64,-0.66 -12.64,-0.66z" fill="#fff" id="svg_74" stroke="#263238" stroke-linecap="round" stroke-linejoin="round"/>
    <path d="m579.61,219.8s0.25,3.35 -3.47,11.9s-5.82,9.29 -5.82,9.29s4.7,8.18 9.29,10.28s11.52,2.85 14.13,0.13s4.21,-8.8 4.21,-11.65s-3.1,-14 -3.1,-14s-9.04,0.12 -15.24,-5.95z" fill="#fff" id="svg_75" stroke="#263238" stroke-linecap="round" stroke-linejoin="round"/>
    <path d="m577.54,236.98s2.73,-2.18 5,-1.5" fill="none" id="svg_76" stroke="#263238" stroke-linecap="round" stroke-linejoin="round"/>
    <path d="m588.99,236.98s-0.13,1.5 -1.23,1.91" fill="none" id="svg_77" stroke="#263238" stroke-linecap="round" stroke-linejoin="round"/>
    <path d="m589.54,242.84s-4,1.5 -7.23,-0.27c0,0 1,4.77 3.41,4.22s3.82,-3.95 3.82,-3.95z" fill="none" id="svg_78" stroke="#263238" stroke-linecap="round" stroke-linejoin="round"/>
    <path d="m576.14,231.68a5.83,5.83 0 0 1 4.67,-1.81" fill="none" id="svg_79" stroke="#263238" stroke-linecap="round" stroke-linejoin="round"/>
    <path d="m586.81,228.25s2.18,-3.82 5.86,-1.23" fill="none" id="svg_80" stroke="#263238" stroke-linecap="round" stroke-linejoin="round"/>
    <path d="m591.59,231.21c0.28,0.73 0.14,1.47 -0.31,1.65s-1.06,-0.28 -1.34,-1s-0.15,-1.48 0.31,-1.65s1.06,0.26 1.34,1z" fill="#263238" id="svg_81"/>
    <path d="m570.32,240.99s-4,-0.88 -2.73,2.53s6.95,3.82 6.95,3.82l-4.22,-6.35z" fill="#fff" id="svg_82" stroke="#263238" stroke-linecap="round" stroke-linejoin="round"/>
    <path d="m596.08,229.34s1.5,-1.91 1.77,0.82a17.86,17.86 0 0 1 -0.41,5.45l-1.36,-6.27z" fill="none" id="svg_83" stroke="#263238" stroke-linecap="round" stroke-linejoin="round"/>
    <polyline fill="#fff" id="svg_84" points="569.0150756835938,268.8233127593994 584.5650634765625,297.3733158111572 598.8450927734375,275.19329261779785 581.6350708007812,257.7333164215088 " stroke="#263238" stroke-linecap="round" stroke-linejoin="round"/>
    <rect fill="#7F00FF" height="27.15" id="svg_85" rx="1.55" stroke="#263238" stroke-linecap="round" stroke-linejoin="round" transform="rotate(-22.47 -2.60459 26.6833) translate(-30.05 252.11)" width="14.91" x="609.43" y="214.78"/>
    <rect fill="#263238" height="5.76" id="svg_86" transform="rotate(-22.47 -2.60459 26.6833) translate(-27.98 248.75)" width="2.56" x="608.19" y="218.6"/>
    <path d="m598.85,275.19s11.85,-16.82 12.87,-20s-1.4,-15.8 -1.78,-17.21s5.73,-6.24 7.39,-7.26s2.17,-0.51 1.66,0.38s-4.21,4 -4.72,4.85a8.66,8.66 0 0 0 -0.64,2.8s2.94,-3.44 4.08,-4.08s4.72,-2.68 5.1,-2.17l0.13,1s1.53,-0.12 1.4,0.9s-2,2.8 -2,2.8l-1.27,1.66s2.93,-2.17 3.18,-1.28s-3.31,4 -3.82,4.72a9.2,9.2 0 0 0 -0.89,2a22,22 0 0 1 -0.13,7.14a7,7 0 0 1 -3.44,4.07l-8.92,25.62s-5.61,11 -6.76,12.62s-2.68,1 -3.57,0.51s-6.75,-5.35 -6.75,-5.35l8.88,-13.72z" fill="#fff" id="svg_87" stroke="#263238" stroke-linecap="round" stroke-linejoin="round"/>
   </g>
   <g id="freepik--character-2--inject-33">
    <path d="m408.21,448.21s24.74,8.62 35.48,9.25s33.94,-9.67 38.19,-10.36s4.62,2.77 3.56,5.78s-32.76,25 -37.63,26.45s-33,-21.44 -37.15,-25.16s-4.5,-5.49 -2.45,-5.96z" fill="#9e9e9e" id="svg_88" stroke="#263238" stroke-linecap="round" stroke-linejoin="round"/>
    <path d="m419.68,475.05s-5.19,1 -9.13,-0.7s-7.45,-4.33 -13.08,-2.26s-9.15,6.6 -7.57,9.48s5.23,4.39 12.46,5s10,-0.31 11.6,-0.14s6.31,0.39 6.31,0.39s3.59,-9.4 -0.59,-11.77z" fill="#fff" id="svg_89" stroke="#263238" stroke-linecap="round" stroke-linejoin="round"/>
    <path d="m435.3,474.52s29.53,-14 38,-20.34s14.29,-7.78 19.54,-4.12s6.24,13.63 0.92,17.89s-27.48,12.94 -41.29,16.41s-15.52,5.87 -18.9,5.65s-6.21,-2.31 -7.39,-1.79s-4.57,1.75 -6.11,1.1s-4.54,-2.77 -3.19,-9.09s3.64,-5.09 5.06,-4.77s2.84,-0.82 4.45,-0.8s4.16,-2.45 5.54,-1.81s3.37,1.67 3.37,1.67z" fill="#9e9e9e" id="svg_90" stroke="#263238" stroke-linecap="round" stroke-linejoin="round"/>
    <path d="m470.87,474.85s5.42,-3.59 7.51,-3.34s2.85,2.87 5.67,2.58s4.14,-2.82 10,0.2s7.51,6.51 7.15,9.08s-5,4 -8.75,4.26s-10.69,-2 -13.36,-1.76s-5,0.69 -5,0.69s1.77,-5.74 0.23,-8.27a9.09,9.09 0 0 0 -3.45,-3.44z" fill="#fff" id="svg_91" stroke="#263238" stroke-linecap="round" stroke-linejoin="round"/>
    <path d="m457.51,473.84s-29.46,-14.16 -37.89,-20.55s-14.24,-7.86 -19.51,-4.23s-6.32,13.6 -1,17.88s27.41,13.1 41.19,16.64s15.5,6 18.87,5.76s6.22,-2.27 7.41,-1.75s4.55,1.78 6.1,1.13s4.56,-2.75 3.24,-9.07s-3.61,-5.11 -5,-4.8s-2.84,-0.83 -4.45,-0.82s-4.14,-2.47 -5.53,-1.84s-3.43,1.65 -3.43,1.65z" fill="#9e9e9e" id="svg_92" stroke="#263238" stroke-linecap="round" stroke-linejoin="round"/>
    <path d="m432.45,457.68l32.75,-0.49l-3.4,-79.56s-7.49,-6.32 -22,-3.09c0,0 -1.5,0.16 -3.86,16.37s-3.49,66.77 -3.49,66.77z" fill="#7F00FF" id="svg_93" stroke="#263238" stroke-linecap="round" stroke-linejoin="round"/>
    <path d="m440.04,376.68s-3.09,19.64 -3.19,36.33s0.21,44.68 0.21,44.68l-16.4,0.25l-1.82,-16.54l-27.05,0.41s-0.2,-5.37 3.53,-13.47s10.88,-28.52 11.87,-32.85s0.57,-8.53 2.54,-9.26s24.67,-9.36 24.67,-9.36s4.77,-3.34 5.64,-0.19z" fill="#263238" id="svg_94" stroke="#263238" stroke-linecap="round" stroke-linejoin="round"/>
    <path d="m437.18,374.51s-4.14,10.08 -5.22,15.7s-1.37,9.47 0.94,8.15s4.62,-3 4.62,-3l2.52,-18.7s0.24,-3.35 -2.86,-2.15z" fill="#fff" id="svg_95" stroke="#263238" stroke-linecap="round" stroke-linejoin="round"/>
    <line fill="#fff" id="svg_96" stroke="#263238" stroke-linecap="round" stroke-linejoin="round" x1="420.37" x2="415.5" y1="434.01" y2="397.45"/>
    <path d="m439.91,379.68s-1.34,11.36 2.86,17.66s9.43,2.24 10.87,-1.89s2.67,-9.32 2.67,-9.32s-7.17,4.19 -16.4,-6.45z" fill="#fff" id="svg_97" stroke="#263238" stroke-linecap="round" stroke-linejoin="round"/>
    <path d="m453.47,376.46s3.67,19.55 4.28,36.22s1.14,44.67 1.14,44.67l13.05,-0.19l1.8,-16.6l29.92,-0.45s0,-5.37 -3.93,-13.36s-11.75,-28.17 -12.86,-32.47s-0.83,-8.51 -2.82,-9.18s-25,-8.6 -25,-8.6s-4.81,-3.2 -5.58,-0.04z" fill="#263238" id="svg_98" stroke="#263238" stroke-linecap="round" stroke-linejoin="round"/>
    <path d="m456.26,374.22s4.44,9.95 5.69,15.53s1.66,9.43 -0.69,8.18s-4.71,-2.84 -4.71,-2.84l-3.08,-18.63s-0.34,-3.34 2.79,-2.24z" fill="#fff" id="svg_99" stroke="#263238" stroke-linecap="round" stroke-linejoin="round"/>
    <line fill="#fff" id="svg_100" stroke="#263238" stroke-linecap="round" stroke-linejoin="round" x1="474.86" x2="478.62" y1="433.19" y2="396.5"/>
    <path d="m500.73,434.45c-3.11,-3.38 -9.55,-7 -16.82,-1.66s-19.51,15.13 -19.51,15.13s-9.06,-2.5 -9.71,-1.66s-5.39,8.16 -5.71,9.32s4,2.08 5.71,2.06s5,-2.72 5,-2.72a4.93,4.93 0 0 0 2.84,0.13c1.84,-0.36 5.31,-2.56 5.31,-2.56s35.29,-9 35.82,-10.95s0.17,-3.71 -2.93,-7.09z" fill="#fff" id="svg_101" stroke="#263238" stroke-linecap="round" stroke-linejoin="round"/>
    <path d="m394.6,436.05c3,-3.47 9.33,-7.26 16.76,-2.17s20,14.54 20,14.54s9,-2.77 9.66,-2s5.63,8 6,9.15s-4,2.2 -5.65,2.23s-5.05,-2.56 -5.05,-2.56a4.94,4.94 0 0 1 -2.83,0.2c-1.84,-0.3 -5.38,-2.39 -5.38,-2.39s-35.55,-8 -36.14,-9.87s-0.37,-3.66 2.63,-7.13z" fill="#fff" id="svg_102" stroke="#263238" stroke-linecap="round" stroke-linejoin="round"/>
    <path d="m437.4,366.48s-2.3,-2.23 -2.94,1.27a6.79,6.79 0 0 0 2.72,6.76l1.05,0.51s0.43,5.05 3.26,8.15s5.52,6.72 10.05,6.48s11.59,-7.15 11.9,-9.43s3.45,-14 3.45,-14s0,-9.43 -8.75,-13.66s-15.7,0.59 -17.75,3.76s-2.99,10.16 -2.99,10.16z" fill="#fff" id="svg_103" stroke="#263238" stroke-linecap="round" stroke-linejoin="round"/>
    <path d="m450.52,374.43a4.81,4.81 0 0 1 -4.55,-1.23" fill="none" id="svg_104" stroke="#263238" stroke-linecap="round" stroke-linejoin="round"/>
    <path d="m458.52,375.28a4,4 0 0 0 4.21,-0.39" fill="none" id="svg_105" stroke="#263238" stroke-linecap="round" stroke-linejoin="round"/>
    <path d="m445.29,371.05a8.82,8.82 0 0 1 7.14,1.3" fill="none" id="svg_106" stroke="#263238" stroke-linecap="round" stroke-linejoin="round"/>
    <path d="m458.05,372.48s3.1,-2.21 5.5,-0.41" fill="none" id="svg_107" stroke="#263238" stroke-linecap="round" stroke-linejoin="round"/>
    <path d="m455.69,380.61s-0.18,2.6 -1.47,2.94s-2.93,-1.36 -2.93,-1.36" fill="none" id="svg_108" stroke="#263238" stroke-linecap="round" stroke-linejoin="round"/>
    <path d="m447.4,382.36s0.79,2.36 4.26,3.06" fill="none" id="svg_109" stroke="#263238" stroke-linecap="round" stroke-linejoin="round"/>
    <path d="m438.65,367.86a7.58,7.58 0 0 1 2.88,-5.63a41,41 0 0 0 4.82,-4.44a6.52,6.52 0 0 0 3.72,3.79c2.81,1 6.11,0.43 7.18,1.46s4.48,7.61 8.84,7.89s6.6,-2.36 7.3,-2.38s3.83,-0.58 4,-3.2s-3,-3.44 -2.53,-5.89s2.17,-6.84 0.21,-9.43s-5.43,-1 -7.72,-2.33s-7.09,-7.22 -13.55,-7.65a10.17,10.17 0 0 0 -9.35,4.86s-8.67,3.79 -9.13,7.81s1.48,5.92 1.51,8s-0.27,5.06 0.61,5.75a4.63,4.63 0 0 1 1.21,1.39z" fill="#263238" id="svg_110" stroke="#263238" stroke-linecap="round" stroke-linejoin="round"/>
    <polygon fill="#fff" id="svg_111" points="473.465087890625,457.6109256744385 418.15509033203125,458.4409427642822 416.1850891113281,424.220911026001 474.40509033203125,423.3409061431885 473.465087890625,457.6109256744385 " stroke="#263238" stroke-linecap="round" stroke-linejoin="round"/>
   </g>
   <g id="freepik--character-1--inject-33">
    <path d="m140.11,239.77s4.89,-2.53 3.08,-9.77s-9.42,-13.76 -15.57,-15.75s-12.13,-2 -19.74,3.44s-13.39,23.53 -10.13,31.32a26.41,26.41 0 0 0 8.87,11.4s-4.89,1.27 -4.17,6s5.25,2.53 10.14,0.36s4.53,-9.6 3.8,-14.67s-1.08,-10.13 -1.08,-10.13s4,-3.08 7.24,-5.8a15,15 0 0 0 4.34,-5.61l8.51,8.87s0.18,2.52 4.71,0.34z" fill="#263238" id="svg_112" stroke="#263238" stroke-linecap="round" stroke-linejoin="round"/>
    <path d="m109.23,438.15l4.94,31.28s-8,8.47 -7.53,15.05s6.45,4.19 8.1,1.84s8,-10 6.95,-17.13c-0.43,-2.87 0.24,-32.22 0.24,-32.22l-12.7,1.18z" fill="#fff" id="svg_113" stroke="#263238" stroke-linecap="round" stroke-linejoin="round"/>
    <path d="m120.4,473.83a29.84,29.84 0 0 1 -5.36,7.75l-6.41,-0.89l0.6,-2.54a26.22,26.22 0 0 1 1.35,-4.15c-2.06,3 -4.19,7 -3.94,10.51c0.47,6.59 6.45,4.19 8.1,1.84c1.53,-2.19 7.14,-8.91 7.07,-15.58c-0.41,0.85 -0.87,1.85 -1.41,3.06z" fill="#7F00FF" id="svg_114" stroke="#263238" stroke-linecap="round" stroke-linejoin="round"/>
    <path d="m152.73,438.97l15.49,31.44s1.49,8.64 4.17,13.85s9.39,6.56 10,1.94s-1.34,-8.64 -4.47,-12.52s-4.47,-5.66 -4.47,-5.66l-6.55,-30.39l-14.17,1.34z" fill="#fff" id="svg_115" stroke="#263238" stroke-linecap="round" stroke-linejoin="round"/>
    <path d="m182.4,486.2c0.57,-4.38 -1.14,-8.21 -4,-11.9l0.11,0.43l1,5.81s-4.62,2.38 -6.26,1.19c-1.3,-0.95 -3.37,-5.31 -4.15,-7a46.84,46.84 0 0 0 3.26,9.57c2.71,5.17 9.42,6.52 10.04,1.9z" fill="#7F00FF" id="svg_116" stroke="#263238" stroke-linecap="round" stroke-linejoin="round"/>
    <path d="m107.4,310.73s-9,22.29 -10.36,39.69s6.12,52.29 6.12,52.29s0,20.15 -0.21,30.73s-1,9.44 -1,9.44l21.64,-0.23s3,-30.53 2.11,-42.52s-0.94,-48.69 -0.94,-48.69l2.58,0s11.76,54.33 12.23,57.15s7.77,32.64 7.77,32.64l24.93,-1.17a88.72,88.72 0 0 0 -5.32,-20.73c-4.47,-11.76 -5.5,-21.09 -6,-22.5s-1.16,-22.68 -6.1,-45.68a192.45,192.45 0 0 0 -14.19,-41.42a84.2,84.2 0 0 1 -33.26,1z" fill="#fff" id="svg_117" stroke="#263238" stroke-linecap="round" stroke-linejoin="round"/>
    <path d="m160.97,396.83c-0.47,-1.41 -1.18,-22.65 -6.12,-45.7a128.4,128.4 0 0 0 -9.45,-28.08c-15.69,6.53 -33.42,4 -42.28,2.06c-2.53,6.72 -5.41,16.07 -6.16,25.31c-1.41,17.41 6.12,52.29 6.12,52.29s0,20.15 -0.21,30.73s-1,9.44 -1,9.44l21.64,-0.23s3,-30.53 2.11,-42.52s-0.94,-48.69 -0.94,-48.69l2.58,0s11.76,54.33 12.23,57.15s7.77,32.64 7.77,32.64l24.93,-1.17a88.72,88.72 0 0 0 -5.32,-20.73c-4.4,-11.76 -5.47,-21.09 -5.9,-22.5z" fill="#263238" id="svg_118" stroke="#263238" stroke-linecap="round" stroke-linejoin="round"/>
    <polyline fill="none" id="svg_119" points="97.92507934570312,362.4936771392822 112.03507995605469,362.7336673736572 112.74507904052734,368.8436527252197 99.3350830078125,368.6136722564697 " stroke="#fff" stroke-miterlimit="10"/>
    <path d="m112.51,371.2s0.71,16.7 0.48,18.58s-9.41,2.35 -9.41,2.35" fill="none" id="svg_120" stroke="#fff" stroke-miterlimit="10"/>
    <polyline fill="none" id="svg_121" points="156.6650848388672,362.4936771392822 142.60508728027344,362.7336673736572 143.2550811767578,368.8436527252197 156.61508178710938,368.6136722564697 " stroke="#fff" stroke-miterlimit="10"/>
    <path d="m144.02,371.2s3,16.7 3.65,18.58s9.92,2.35 9.92,2.35" fill="none" id="svg_122" stroke="#fff" stroke-miterlimit="10"/>
    <polyline fill="none" id="svg_123" points="123.80508422851562,328.793664932251 124.50508117675781,333.9636478424072 127.3250732421875,334.2036380767822 128.26507568359375,345.2536869049072 " stroke="#fff" stroke-miterlimit="10"/>
    <path d="m115.4,261.82a23.81,23.81 0 0 0 -7,1c-2.82,1 -8.34,2.37 -10.54,6.09c-3.71,6.28 4.79,26.54 6.14,31.45s3.4,10.37 3.4,10.37s11.49,3.38 20.79,1.86s12.52,-2.88 12.52,-2.88s1.9,-7 3.93,-19.78c1.05,-6.67 5.61,-14.25 4.91,-19.46c-1.21,-9.09 -17,-8.12 -18.82,-7.95c-1.47,0.13 -10.93,-0.43 -15.33,-0.7z" fill="#7F00FF" id="svg_124" stroke="#263238" stroke-linecap="round" stroke-linejoin="round"/>
    <path d="m116.14,253.05a37.39,37.39 0 0 1 -1,6.09c-0.84,3.38 -2,4.56 -2,4.56s2.16,4.25 8.29,4.74c8.45,0.67 11.67,-5.75 11.67,-5.75a19.24,19.24 0 0 1 -3.05,-9.3l-13.91,-0.34z" fill="#fff" id="svg_125" stroke="#263238" stroke-linecap="round" stroke-linejoin="round"/>
    <path d="m125.92,224.31s-3.72,6.51 -7.25,9.85a47.17,47.17 0 0 1 -9.48,6.32s1.49,8.55 4.09,13.2s7.81,9.66 14.12,7.43s9.48,-13.94 9.48,-16.91s-0.37,-7.25 -0.37,-7.25s-5.76,-3.16 -10.59,-12.64z" fill="#fff" id="svg_126" stroke="#263238" stroke-linecap="round" stroke-linejoin="round"/>
    <path d="m109,241.97s-3.16,-1.67 -3.53,2s6.51,6.32 6.51,6.32l-2.98,-8.32z" fill="#fff" id="svg_127" stroke="#263238" stroke-linecap="round" stroke-linejoin="round"/>
    <path d="m137.07,240.15s2.6,-1.49 2.42,2.23a6.82,6.82 0 0 1 -3.16,5.39l0.74,-7.62z" fill="#fff" id="svg_128" stroke="#263238" stroke-linecap="round" stroke-linejoin="round"/>
    <path d="m120.34,242.53c0,0.92 -0.5,1.67 -1.11,1.67s-1.12,-0.75 -1.12,-1.67s0.5,-1.68 1.12,-1.68s1.11,0.75 1.11,1.68z" fill="#263238" id="svg_129"/>
    <path d="m130.4,242.53c0,0.92 -0.5,1.67 -1.12,1.67s-1.11,-0.75 -1.11,-1.67s0.5,-1.68 1.11,-1.68s1.12,0.75 1.12,1.68z" fill="#263238" id="svg_130"/>
    <path d="m122.4,247.73s1.67,1.67 4.27,-0.19" fill="none" id="svg_131" stroke="#263238" stroke-miterlimit="10"/>
    <path d="m115.51,238.81s1.49,-1.86 5,-1.67" fill="none" id="svg_132" stroke="#263238" stroke-miterlimit="10"/>
    <path d="m127.4,237.15s3.35,-0.56 5.21,1.48" fill="none" id="svg_133" stroke="#263238" stroke-miterlimit="10"/>
    <path d="m128.15,250.7c-4.46,2.42 -7.25,0 -7.25,0s0.37,4.65 3,4.84s4.25,-4.84 4.25,-4.84z" fill="none" id="svg_134" stroke="#263238" stroke-miterlimit="10"/>
    <path d="m107.18,263.2s-8.17,-0.51 -12.57,5.07s-8.36,44.73 -5.82,46.25s7.62,-0.54 8.63,-1.73s7.84,-30.43 7.84,-30.43" fill="#7F00FF" id="svg_135" stroke="#263238" stroke-linecap="round" stroke-linejoin="round"/>
    <path d="m90.23,286.35c-2.11,11.25 -4.46,27.1 -3,28c2.54,1.52 8.63,0.51 9.64,-0.68c0.68,-0.79 5,-16.26 6.74,-24.4l-13.38,-2.92z" fill="#fff" id="svg_136" stroke="#263238" stroke-linecap="round" stroke-linejoin="round"/>
    <path d="m139.21,263.28a12.88,12.88 0 0 1 11.05,3.68c1.81,1.76 3.32,9.35 5.45,16.09c3.89,12.22 5.9,25.9 4.41,27.08c-2.32,1.84 -4.78,4 -5.93,3s-14.53,-31.72 -14.53,-31.72" fill="#7F00FF" id="svg_137" stroke="#263238" stroke-linecap="round" stroke-linejoin="round"/>
    <path d="m155.71,283.05c3.54,10.88 8.68,27.09 7.31,28.17c-2.32,1.84 -7.68,2.92 -8.83,1.87c-0.78,-0.7 -8.09,-17.62 -11.58,-25.23l13.1,-4.81z" fill="#fff" id="svg_138" stroke="#263238" stroke-linecap="round" stroke-linejoin="round"/>
    <path d="m150.17,291.37s-2.28,-6.13 -3.12,-6.86s-8.42,-6 -8.42,-6l-0.1,1.77l4.05,3l-4,-0.62l0.11,1.66l4.78,2l-5,-0.31l0,1.76l4.47,0.73l-4.47,1.25l0.46,1.05l4.22,0s1.14,3.64 2.6,4.78a6.64,6.64 0 0 0 3.84,1s1.52,13.61 4.54,16.52s10.29,3.4 10.5,-1.28s-0.63,-5.79 -3.85,-8.59s-10.61,-11.86 -10.61,-11.86z" fill="#fff" id="svg_139" stroke="#263238" stroke-linecap="round" stroke-linejoin="round"/>
    <path d="m138.66,298.34l-10.66,0l-1,-19.54a1.06,1.06 0 0 1 1,-1.11l9.78,-0.6a1.06,1.06 0 0 1 1.12,1.07l-0.24,20.18z" fill="#263238" id="svg_140" stroke="#263238" stroke-linecap="round" stroke-linejoin="round"/>
    <path d="m91.32,303.86l28.71,-10.71s3.38,-2.54 3.89,-3.05s3.55,-2.7 3.55,-2.7l0,2.53l11.83,3.55s-0.5,1.36 -1.18,1.36c0,0 2,0.67 2,1.35a3.21,3.21 0 0 1 -1,2.7c-1,0.85 -6.93,1.53 -9.46,1.53a61.44,61.44 0 0 1 -8.63,-1.36s-20.59,15.14 -24,16.49s-9.13,3.05 -9.81,-1.18s1.61,-11.42 1.61,-11.42" fill="#fff" id="svg_141" stroke="#263238" stroke-linecap="round" stroke-linejoin="round"/>
    <path d="m138.12,294.82a75.47,75.47 0 0 1 -9.72,-1.37" fill="none" id="svg_142" stroke="#263238" stroke-miterlimit="10"/>
    <path d="m139.78,296.99s-8.63,-0.11 -11.23,-0.94" fill="none" id="svg_143" stroke="#263238" stroke-miterlimit="10"/>
    <path d="m128.86,298.76s6.65,0.93 9.46,0.52" fill="none" id="svg_144" stroke="#263238" stroke-miterlimit="10"/>
   </g>
   <text fill="#ffffff" font-family="Serif" font-size="24" id="svg_147" stroke="#000000" stroke-width="0" text-anchor="middle" transform="matrix(19.792 0 0 17.6502 -4866.98 -3263.68)" x="262.88" xml:space="preserve" y="206.65">T</text>
  </g>
 </g>
</svg>