<?xml version="1.0" encoding="UTF-8" standalone="no"?>
<!-- Uploaded to: SVG Repo, www.svgrepo.com, Generator: SVG Repo Mixer Tools -->

<svg
   fill="#000000"
   width="800px"
   height="800px"
   viewBox="0 0 36 36"
   version="1.1"
   preserveAspectRatio="xMidYMid meet"
   id="svg2"
   sodipodi:docname="unread.svg"
   inkscape:version="1.3 (0e150ed6c4, 2023-07-21)"
   xmlns:inkscape="http://www.inkscape.org/namespaces/inkscape"
   xmlns:sodipodi="http://sodipodi.sourceforge.net/DTD/sodipodi-0.dtd"
   xmlns="http://www.w3.org/2000/svg"
   xmlns:svg="http://www.w3.org/2000/svg">
  <defs
     id="defs2" />
  <sodipodi:namedview
     id="namedview2"
     pagecolor="#ffffff"
     bordercolor="#000000"
     borderopacity="0.25"
     inkscape:showpageshadow="2"
     inkscape:pageopacity="0.0"
     inkscape:pagecheckerboard="0"
     inkscape:deskcolor="#d1d1d1"
     inkscape:zoom="0.48"
     inkscape:cx="137.5"
     inkscape:cy="678.125"
     inkscape:window-width="1920"
     inkscape:window-height="991"
     inkscape:window-x="-9"
     inkscape:window-y="-9"
     inkscape:window-maximized="1"
     inkscape:current-layer="svg2" />
  <title
     id="title1">notification-solid-badged</title>
  <path
     class="clr-i-solid--badged clr-i-solid-path-1--badged"
     d="M18,34.28A2.67,2.67,0,0,0,20.58,32H15.32A2.67,2.67,0,0,0,18,34.28Z"
     id="path1"
     style="fill:#b7b7b7;fill-opacity:1" />
  <path
     class="clr-i-solid--badged clr-i-solid-path-2--badged"
     d="M32.85,28.13l-.34-.3A14.37,14.37,0,0,1,30,24.9a12.63,12.63,0,0,1-1.35-4.81V15.15a10.92,10.92,0,0,0-.16-1.79A7.5,7.5,0,0,1,22.5,6c0-.21,0-.42,0-.63a10.57,10.57,0,0,0-3.32-1V3.11a1.33,1.33,0,1,0-2.67,0V4.42A10.81,10.81,0,0,0,7.21,15.15v4.94A12.63,12.63,0,0,1,5.86,24.9a14.4,14.4,0,0,1-2.47,2.93l-.34.3v2.82H32.85Z"
     id="path2"
     style="fill:#b7b7b7;fill-opacity:1" />
  <circle
     class="clr-i-solid--badged clr-i-solid-path-3--badged clr-i-badge"
     cx="30"
     cy="6"
     r="5"
     id="circle2"
     style="fill:#7f00ff;fill-opacity:1" />
  <rect
     x="0"
     y="0"
     width="36"
     height="36"
     fill-opacity="0"
     id="rect2" />
</svg>
