<?xml version="1.0"?>
<svg width="1024" height="1024" xmlns="http://www.w3.org/2000/svg" xmlns:svg="http://www.w3.org/2000/svg" class="svg-icon" version="1.1">
 <g class="layer">
  <title>Layer 1</title>
  <path d="m418.49,756.15a393.33,393.33 0 0 0 55.66,3.93c191.18,0 346.15,-137.41 346.15,-306.91c0,-84.58 -38.59,-161.18 -101.05,-216.7c133.56,40.27 229.07,147.49 229.07,273.41c0,86.42 -45.02,164.09 -116.45,217.31c-4.46,3.29 -16.2,11.35 -17.11,11.9c-30.41,22.38 -1.17,74.73 29.18,106.84c16.75,17.78 14.12,23.3 -7.77,17.74c-106.53,-26.95 -126.36,-78.94 -173.09,-67.8l-0.13,0.03c-19.75,2.93 -40.05,4.47 -60.8,4.47c-67.48,0 -130.42,-16.21 -183.66,-44.22z" fill="#b7b7b7" id="svg_1"/>
  <path d="m73.14,436.74c0,-160.41 154.96,-290.45 346.15,-290.45c191.18,0 346.15,130.04 346.15,290.45c0,160.42 -154.97,290.48 -346.15,290.48c-20.75,0 -41.05,-1.53 -60.8,-4.46l-0.11,-0.04c-46.75,-11.15 -66.56,40.85 -173.11,67.81c-21.89,5.56 -24.5,0.03 -7.75,-17.74c30.35,-32.11 59.57,-84.46 29.18,-106.84c-0.91,-0.55 -12.65,-8.63 -17.11,-11.89c-71.43,-53.21 -116.45,-130.91 -116.45,-217.32z" fill="#b7b7b7" id="svg_2"/>
  <ellipse cx="746" cy="221" fill="#7f00ff" id="svg_3" rx="131" ry="131"/>
 </g>
</svg>